<?xml version="1.0" encoding="utf-8" standalone="no"?>
<!DOCTYPE svg PUBLIC "-//W3C//DTD SVG 1.1//EN"
  "http://www.w3.org/Graphics/SVG/1.1/DTD/svg11.dtd">
<svg xmlns:xlink="http://www.w3.org/1999/xlink" width="421.646772pt" height="108.074653pt" viewBox="0 0 421.646772 108.074653" xmlns="http://www.w3.org/2000/svg" version="1.1">
 <metadata>
  <rdf:RDF xmlns:dc="http://purl.org/dc/elements/1.1/" xmlns:cc="http://creativecommons.org/ns#" xmlns:rdf="http://www.w3.org/1999/02/22-rdf-syntax-ns#">
   <cc:Work>
    <dc:type rdf:resource="http://purl.org/dc/dcmitype/StillImage"/>
    <dc:date>2026-09-26T02:37:54.440490</dc:date>
    <dc:format>image/svg+xml</dc:format>
    <dc:creator>
     <cc:Agent>
      <dc:title>Matplotlib v3.11.2, https://matplotlib.org/</dc:title>
     </cc:Agent>
    </dc:creator>
   </cc:Work>
  </rdf:RDF>
 </metadata>
 <defs>
  <style type="text/css">*{stroke-linejoin: round; stroke-linecap: butt}</style>
 </defs>
 <g id="figure_1">
  <g id="patch_1">
   <path d="M -0 108.074653 
L 421.646772 108.074653 
L 421.646772 0 
L -0 0 
z
" style="fill: #ffffff"/>
  </g>
  <g id="axes_1">
   <g id="patch_2">
    <path d="M 19.66 93.435591 
L 419.486772 93.435591 
L 419.486772 2.16 
L 19.66 2.16 
z
" style="fill: #ffffff"/>
   </g>
   <g id="matplotlib.axis_1">
    <g id="text_1">
     <text style="font-size: 8px; font-family: 'Times New Roman', 'SimSun', 'Liberation Serif', 'Noto Serif CJK SC'; text-anchor: middle" x="219.573386" y="104.188091" transform="rotate(-0 219.573386 104.188091)">时间 →</text>
    </g>
   </g>
   <g id="matplotlib.axis_2">
    <g id="ytick_1">
     <g id="line2d_1"/>
     <g id="text_2">
      <text style="font-size: 8px; font-family: 'Times New Roman', 'SimSun', 'Liberation Serif', 'Noto Serif CJK SC'; text-anchor: end" x="16.16" y="37.203292" transform="rotate(-0 16.16 37.203292)">核 0</text>
     </g>
    </g>
    <g id="ytick_2">
     <g id="line2d_2"/>
     <g id="text_3">
      <text style="font-size: 8px; font-family: 'Times New Roman', 'SimSun', 'Liberation Serif', 'Noto Serif CJK SC'; text-anchor: end" x="16.16" y="74.458635" transform="rotate(-0 16.16 74.458635)">核 1</text>
     </g>
    </g>
   </g>
   <g id="patch_3">
    <path d="M 28.545039 45.003645 
L 118.664724 45.003645 
Q 121.203307 45.003645 121.203307 42.023217 
L 121.203307 25.630866 
Q 121.203307 22.650439 118.664724 22.650439 
L 28.545039 22.650439 
Q 26.006457 22.650439 26.006457 25.630866 
L 26.006457 42.023217 
Q 26.006457 45.003645 28.545039 45.003645 
z
" clip-path="url(#pdd7818b429)" style="fill: #3c5488; opacity: 0.85; stroke: #ffffff; stroke-linejoin: miter"/>
   </g>
   <g id="patch_4">
    <path d="M 136.434803 45.003645 
L 207.515118 45.003645 
Q 210.053701 45.003645 210.053701 42.023217 
L 210.053701 25.630866 
Q 210.053701 22.650439 207.515118 22.650439 
L 136.434803 22.650439 
Q 133.89622 22.650439 133.89622 25.630866 
L 133.89622 42.023217 
Q 133.89622 45.003645 136.434803 45.003645 
z
" clip-path="url(#pdd7818b429)" style="fill: #3c5488; opacity: 0.85; stroke: #ffffff; stroke-linejoin: miter"/>
   </g>
   <g id="patch_5">
    <path d="M 342.694646 45.003645 
L 407.428504 45.003645 
Q 409.967087 45.003645 409.967087 42.023217 
L 409.967087 25.630866 
Q 409.967087 22.650439 407.428504 22.650439 
L 342.694646 22.650439 
Q 340.156063 22.650439 340.156063 25.630866 
L 340.156063 42.023217 
Q 340.156063 45.003645 342.694646 45.003645 
z
" clip-path="url(#pdd7818b429)" style="fill: #3c5488; opacity: 0.85; stroke: #ffffff; stroke-linejoin: miter"/>
   </g>
   <g id="patch_6">
    <path d="M 28.545039 82.258988 
L 93.278898 82.258988 
Q 95.81748 82.258988 95.81748 79.27856 
L 95.81748 62.886209 
Q 95.81748 59.905782 93.278898 59.905782 
L 28.545039 59.905782 
Q 26.006457 59.905782 26.006457 62.886209 
L 26.006457 79.27856 
Q 26.006457 82.258988 28.545039 82.258988 
z
" clip-path="url(#pdd7818b429)" style="fill: #e64b35; opacity: 0.85; stroke: #ffffff; stroke-linejoin: miter"/>
   </g>
   <g id="patch_7">
    <path d="M 161.82063 82.258988 
L 251.940315 82.258988 
Q 254.478898 82.258988 254.478898 79.27856 
L 254.478898 62.886209 
Q 254.478898 59.905782 251.940315 59.905782 
L 161.82063 59.905782 
Q 159.282047 59.905782 159.282047 62.886209 
L 159.282047 79.27856 
Q 159.282047 82.258988 161.82063 82.258988 
z
" clip-path="url(#pdd7818b429)" style="fill: #e64b35; opacity: 0.85; stroke: #ffffff; stroke-linejoin: miter"/>
   </g>
   <g id="patch_8">
    <path d="M 269.710394 82.258988 
L 321.751339 82.258988 
Q 324.289921 82.258988 324.289921 79.27856 
L 324.289921 62.886209 
Q 324.289921 59.905782 321.751339 59.905782 
L 269.710394 59.905782 
Q 267.171811 59.905782 267.171811 62.886209 
L 267.171811 79.27856 
Q 267.171811 82.258988 269.710394 82.258988 
z
" clip-path="url(#pdd7818b429)" style="fill: #e64b35; opacity: 0.85; stroke: #ffffff; stroke-linejoin: miter"/>
   </g>
   <g id="patch_9">
    <path d="M 210.053701 36.844724 
L 340.156063 36.844724 
L 340.156063 11.287559 
L 210.053701 11.287559 
z
" clip-path="url(#pdd7818b429)" style="fill: #8c8c8c; opacity: 0.15"/>
   </g>
   <g id="patch_10">
    <path d="M 122.137612 45.369285 
Q 140.245071 52.45565 157.311385 59.134562 
" clip-path="url(#pdd7818b429)" style="fill: none; stroke-dasharray: 3,2; stroke-dashoffset: 0; stroke: #dc0000; stroke-linecap: round"/>
    <path d="M 154.914553 56.478399 
L 157.311385 59.134562 
L 153.748356 59.45833 
z
" clip-path="url(#pdd7818b429)" style="fill: #dc0000; stroke-dasharray: 3,2; stroke-dashoffset: 0; stroke: #dc0000; stroke-linecap: round"/>
   </g>
   <g id="patch_11">
    <path d="M 255.464624 59.734331 
Q 297.317982 52.454626 338.069843 45.366508 
" clip-path="url(#pdd7818b429)" style="fill: none; stroke-dasharray: 3,2; stroke-dashoffset: 0; stroke: #dc0000; stroke-linecap: round"/>
    <path d="M 334.642999 44.33853 
L 338.069843 45.366508 
L 335.191353 47.491196 
z
" clip-path="url(#pdd7818b429)" style="fill: #dc0000; stroke-dasharray: 3,2; stroke-dashoffset: 0; stroke: #dc0000; stroke-linecap: round"/>
   </g>
   <g id="patch_12">
    <path d="M 19.66 93.435591 
L 419.486772 93.435591 
" style="fill: none; stroke: #333333; stroke-width: 0.7; stroke-linejoin: miter; stroke-linecap: square"/>
   </g>
   <g id="text_4">
    <!-- $s_1$ -->
    <g style="fill: #ffffff" transform="translate(70.229882 35.903458)">
     <text>
      <tspan x="0" y="-0.765625" style="font-style: italic; font-size: 9px; font-family: 'Liberation Serif'; fill: #ffffff">s</tspan>
      <tspan x="3.502441" y="0.582813" style="font-size: 6.3px; font-family: 'Noto Serif CJK SC'; fill: #ffffff">1</tspan>
     </text>
    </g>
   </g>
   <g id="text_5">
    <!-- $s_3$ -->
    <g style="fill: #ffffff" transform="translate(168.329961 35.903458)">
     <text>
      <tspan x="0" y="-0.765625" style="font-style: italic; font-size: 9px; font-family: 'Liberation Serif'; fill: #ffffff">s</tspan>
      <tspan x="3.502441" y="0.615625" style="font-size: 6.3px; font-family: 'Noto Serif CJK SC'; fill: #ffffff">3</tspan>
     </text>
    </g>
   </g>
   <g id="text_6">
    <!-- $s_5$ -->
    <g style="fill: #ffffff" transform="translate(371.416575 35.903458)">
     <text>
      <tspan x="0" y="-0.765625" style="font-style: italic; font-size: 9px; font-family: 'Liberation Serif'; fill: #ffffff">s</tspan>
      <tspan x="3.502441" y="0.517187" style="font-size: 6.3px; font-family: 'Noto Serif CJK SC'; fill: #ffffff">5</tspan>
     </text>
    </g>
   </g>
   <g id="text_7">
    <!-- $s_2$ -->
    <g style="fill: #ffffff" transform="translate(57.266969 73.158801)">
     <text>
      <tspan x="0" y="-0.765625" style="font-style: italic; font-size: 9px; font-family: 'Liberation Serif'; fill: #ffffff">s</tspan>
      <tspan x="3.502441" y="0.615625" style="font-size: 6.3px; font-family: 'Noto Serif CJK SC'; fill: #ffffff">2</tspan>
     </text>
    </g>
   </g>
   <g id="text_8">
    <!-- $s_4$ -->
    <g style="fill: #ffffff" transform="translate(203.235472 73.158801)">
     <text>
      <tspan x="0" y="-0.765625" style="font-style: italic; font-size: 9px; font-family: 'Liberation Serif'; fill: #ffffff">s</tspan>
      <tspan x="3.502441" y="0.59375" style="font-size: 6.3px; font-family: 'Noto Serif CJK SC'; fill: #ffffff">4</tspan>
     </text>
    </g>
   </g>
   <g id="text_9">
    <!-- $s_6$ -->
    <g style="fill: #ffffff" transform="translate(292.085866 73.158801)">
     <text>
      <tspan x="0" y="-0.765625" style="font-style: italic; font-size: 9px; font-family: 'Liberation Serif'; fill: #ffffff">s</tspan>
      <tspan x="3.502441" y="0.615625" style="font-size: 6.3px; font-family: 'Noto Serif CJK SC'; fill: #ffffff">6</tspan>
     </text>
    </g>
   </g>
   <g id="patch_13">
    <path d="M 124.096496 18.179798 
Q 127.547874 18.179798 130.999251 18.179798 
" style="fill: none; stroke: #222222; stroke-width: 0.8; stroke-linecap: round"/>
    <path d="M 127.696496 19.979798 
L 124.096496 18.179798 
L 127.696496 16.379798 
" style="fill: none; stroke: #222222; stroke-width: 0.8; stroke-linecap: round"/>
    <path d="M 127.399251 16.379798 
L 130.999251 18.179798 
L 127.399251 19.979798 
" style="fill: none; stroke: #222222; stroke-width: 0.8; stroke-linecap: round"/>
   </g>
   <g id="text_10">
    <!-- $W_{same}$ -->
    <g transform="translate(118.809764 13.559136)">
     <text>
      <tspan x="0" y="-0.03125" style="font-style: italic; font-size: 7.6px; font-family: 'Liberation Serif'">W</tspan>
      <tspan x="6.325653" y="1.014062" style="font-style: italic; font-size: 5.32px; font-family: 'Liberation Serif'">s</tspan>
      <tspan x="8.394283" y="1.014062" style="font-style: italic; font-size: 5.32px; font-family: 'Liberation Serif'">a</tspan>
      <tspan x="11.052095" y="1.014062" style="font-style: italic; font-size: 5.32px; font-family: 'Liberation Serif'">m</tspan>
      <tspan x="14.890869" y="1.014062" style="font-style: italic; font-size: 5.32px; font-family: 'Liberation Serif'">e</tspan>
     </text>
    </g>
   </g>
   <g id="text_11">
    <!-- $W_{cross}$ -->
    <g style="fill: #dc0000" transform="translate(151.348976 51.709606)">
     <text>
      <tspan x="0" y="-0.03125" style="font-style: italic; font-size: 7.6px; font-family: 'Liberation Serif'; fill: #dc0000">W</tspan>
      <tspan x="6.325653" y="1.014062" style="font-style: italic; font-size: 5.32px; font-family: 'Liberation Serif'; fill: #dc0000">c</tspan>
      <tspan x="8.684981" y="1.014062" style="font-style: italic; font-size: 5.32px; font-family: 'Liberation Serif'; fill: #dc0000">r</tspan>
      <tspan x="10.75361" y="1.014062" style="font-style: italic; font-size: 5.32px; font-family: 'Liberation Serif'; fill: #dc0000">o</tspan>
      <tspan x="13.411423" y="1.014062" style="font-style: italic; font-size: 5.32px; font-family: 'Liberation Serif'; fill: #dc0000">s</tspan>
      <tspan x="15.480052" y="1.014062" style="font-style: italic; font-size: 5.32px; font-family: 'Liberation Serif'; fill: #dc0000">s</tspan>
     </text>
    </g>
   </g>
   <g id="text_12">
    <!-- $W_{cross}$ -->
    <g style="fill: #dc0000" transform="translate(283.037953 47.238965)">
     <text>
      <tspan x="0" y="-0.03125" style="font-style: italic; font-size: 7.6px; font-family: 'Liberation Serif'; fill: #dc0000">W</tspan>
      <tspan x="6.325653" y="1.014062" style="font-style: italic; font-size: 5.32px; font-family: 'Liberation Serif'; fill: #dc0000">c</tspan>
      <tspan x="8.684981" y="1.014062" style="font-style: italic; font-size: 5.32px; font-family: 'Liberation Serif'; fill: #dc0000">r</tspan>
      <tspan x="10.75361" y="1.014062" style="font-style: italic; font-size: 5.32px; font-family: 'Liberation Serif'; fill: #dc0000">o</tspan>
      <tspan x="13.411423" y="1.014062" style="font-style: italic; font-size: 5.32px; font-family: 'Liberation Serif'; fill: #dc0000">s</tspan>
      <tspan x="15.480052" y="1.014062" style="font-style: italic; font-size: 5.32px; font-family: 'Liberation Serif'; fill: #dc0000">s</tspan>
     </text>
    </g>
   </g>
   <g id="text_13">
    <text style="font-size: 7.4px; font-family: 'Times New Roman', 'SimSun', 'Liberation Serif', 'Noto Serif CJK SC'; text-anchor: middle; fill: #555555" x="275.104882" y="29.3564" transform="rotate(-0 275.104882 29.3564)">核 0 空等跨核前驱 s₄</text>
   </g>
  </g>
 </g>
 <defs>
  <clipPath id="pdd7818b429">
   <rect x="19.66" y="2.16" width="399.826772" height="91.275591"/>
  </clipPath>
 </defs>
</svg>
